<?xml version="1.0" encoding="UTF-8" standalone="no"?>
<svg
   xmlns:dc="http://purl.org/dc/elements/1.1/"
   xmlns:cc="http://creativecommons.org/ns#"
   xmlns:rdf="http://www.w3.org/1999/02/22-rdf-syntax-ns#"
   xmlns:svg="http://www.w3.org/2000/svg"
   xmlns="http://www.w3.org/2000/svg"
   xmlns:sodipodi="http://sodipodi.sourceforge.net/DTD/sodipodi-0.dtd"
   xmlns:inkscape="http://www.inkscape.org/namespaces/inkscape"
   viewBox="0 0 155.99999 76.070001"
   version="1.1"
   id="svg146"
   sodipodi:docname="wekan-logo.svg"
   width="156"
   height="76.07"
   inkscape:version="0.92.1 r15371">
  <metadata
     id="metadata150">
    <rdf:RDF>
      <cc:Work
         rdf:about="">
        <dc:format>image/svg+xml</dc:format>
        <dc:type
           rdf:resource="http://purl.org/dc/dcmitype/StillImage" />
        <dc:title>wekan-1</dc:title>
      </cc:Work>
    </rdf:RDF>
  </metadata>
  <sodipodi:namedview
     pagecolor="#ffffff"
     bordercolor="#666666"
     borderopacity="1"
     objecttolerance="10"
     gridtolerance="10"
     guidetolerance="10"
     inkscape:pageopacity="0"
     inkscape:pageshadow="2"
     inkscape:window-width="1916"
     inkscape:window-height="1029"
     id="namedview148"
     showgrid="false"
     inkscape:zoom="4.011979"
     inkscape:cx="18.36847"
     inkscape:cy="28.675262"
     inkscape:window-x="0"
     inkscape:window-y="24"
     inkscape:window-maximized="0"
     inkscape:current-layer="svg146"
     fit-margin-top="0"
     fit-margin-left="0"
     fit-margin-right="0"
     fit-margin-bottom="0" />
  <defs
     id="defs110">
    <clipPath
       id="a"
       transform="translate(26.32 17.71)">
      <path
         d="M 234.31,162.74 H 13.58 a 9,9 0 0 1 -9,-9 V 14 a 9,9 0 0 1 9,-9 h 220.73 a 9,9 0 0 1 9,9 v 139.74 a 9,9 0 0 1 -9,9"
         style="fill:none"
         id="path100"
         inkscape:connector-curvature="0" />
    </clipPath>
    <linearGradient
       id="b"
       x1="-183.37"
       y1="451.57999"
       x2="-182.37"
       y2="451.57999"
       gradientTransform="matrix(0,-157.69,157.69,0,-71058.23,-28734.94)"
       gradientUnits="userSpaceOnUse">
      <stop
         offset="0"
         stop-color="#007c8f"
         id="stop103" />
      <stop
         offset="0.37"
         stop-color="#007088"
         id="stop105" />
      <stop
         offset="1"
         stop-color="#005377"
         id="stop107" />
    </linearGradient>
  </defs>
  <title
     id="title112">wekan-1</title>
  <path
     style="fill:#e3e3e3"
     d="M 5.4944141e-4,-3.0849048e-4 V 76.070004 H 156.00055 V -3.0849048e-4 Z"
     id="path114"
     inkscape:connector-curvature="0" />
  <path
     style="fill:url(#b)"
     d="M 5.4944141e-4,-3.0849048e-4 V 76.070004 H 156.00055 V -3.0849048e-4 Z"
     id="rect116"
     inkscape:connector-curvature="0" />
  <path
     inkscape:connector-curvature="0"
     id="path118"
     style="fill:#7addfc"
     d="m 152.5,75.570004 v -0.54 H 3.5000024 a 2.5,2.5 0 0 1 -2.5,-2.5 V 3.5000035 a 2.5,2.5 0 0 1 2.5,-2.5 H 152.5 a 2.5,2.5 0 0 1 2.5,2.5 V 72.570004 a 2.5,2.5 0 0 1 -2.5,2.5 v 1 a 3.5,3.5 0 0 0 3.5,-3.5 V 3.5000035 A 3.5,3.5 0 0 0 152.5,3.5095215e-6 H 3.5000024 A 3.5,3.5 0 0 0 2.4414063e-6,3.5000035 V 72.570004 A 3.5,3.5 0 0 0 3.5000024,76.070004 H 152.5 Z" />
  <path
     inkscape:connector-curvature="0"
     id="path136"
     style="fill:#ffffff"
     d="m 136.06,45.760004 a 1.47,1.47 0 0 0 -0.83,0.33 q -3.12,8.16 -4.95,7.92 c -0.35,0 -0.56,-0.37 -0.58,-1 a 10.56,10.56 0 0 1 0.31,-2.53 c 0.23,-1.06 0.5,-2.12 0.78,-3.19 0.28,-1.07 0.56,-2.28 0.89,-3.61 0.33,-1.33 0.6,-2.38 0.75,-3.14 a 1.14,1.14 0 0 0 -0.47,-1.28 2.47,2.47 0 0 0 -1.89,-0.06 c -3.55,0.79 -6.33,3.92 -8.31,9.36 q 0.91,-6.36 1.14,-7.17 c 0.25,-1.11 0.45,-1.82 0.56,-2.14 a 9.23,9.23 0 0 0 -1.81,-0.11 17.4,17.4 0 0 0 -3.45,0.33 c -1.27,0.24 -1.93,0.54 -2,0.92 -0.22,1.92 -0.24,3.93 -0.44,5.92 -0.2,1.99 -0.32,3.69 -0.44,5.31 a 10.66,10.66 0 0 1 -1.25,1.69 c -0.53,0.55 -1,0.81 -1.42,0.75 -1,-0.16 -0.37,-3 1.53,-8.64 1.45,-4.33 0.71,-6.16 -5.22,-6.2 a 10.64,10.64 0 0 0 -5.47,1.67 12.25,12.25 0 0 0 -5.329998,6.95 c -0.09,0.31 -0.16,0.6 -0.22,0.89 -0.28,0.5 -0.56,1 -0.83,1.36 a 7,7 0 0 1 -1.64,1.94 1.68,1.68 0 0 1 -1.14,0.33 c -1,-0.16 -2.28,-1 -3.7,-2.58 -1,-1.09 -2.86,-3 -3.78,-4.14 5.64,-10.17 20.729998,-12.5 25.059998,-12.5 1.36,0 1.41,-6.25 0,-6.25 -17.549998,0 -25.359998,14.85 -27.089998,19.95 0.15,-1.65 0.27,-2.71 0.5,-4.86 0.23,-2.15 0.4,-3.85 0.53,-5.11 0.13,-1.26 0.26,-2.73 0.42,-4.36 0.16,-1.63 0.32,-2.91 0.42,-3.86 0.1,-0.95 0.23,-2 0.36,-3.11 0.13,-1.11 0.23,-2 0.33,-2.69 l 0.31,-1.94 c 0.1,-0.65 0.18,-1.19 0.28,-1.58 a 0.94,0.94 0 0 0 -0.69,-1.31 4.54,4.54 0 0 0 -0.94,-0.06 1.85,1.85 0 0 0 -0.94,0.36 1.93,1.93 0 0 0 -0.69,0.94 q -3.71,8.74 -6.14,27.17 a 13.66,13.66 0 0 1 -4.25,6 7.66,7.66 0 0 1 -5.33,1.86 3.35,3.35 0 0 1 -2.83,-2.42 9.5,9.5 0 0 1 -0.19,-5.47 c 0.86,-4.11 2,-6.17 3.33,-6.17 0.91,0 0.95,1.54 0.08,4.64 -0.66,2.21 -1.58,3.69 -2.75,4.42 -0.41,0.25 -0.58,0.46 -0.53,0.58 0.05,0.12 0.36,0.19 0.92,0 a 19.18,19.18 0 0 0 5.56,-2.31 6.14,6.14 0 0 0 3,-3.28 3.08,3.08 0 0 0 -1.27,-3.25 7.24,7.24 0 0 0 -4.33,-1.53 11.22,11.22 0 0 0 -5.08,1 l 0.11,-0.19 a 47.91,47.91 0 0 0 5.75,-12 c 1.15,-3.79 0.83,-6.56 -0.94,-8.33 a 6.71,6.71 0 0 0 -2.92,-1.25 c -2.45,-0.66 -5.21,-1.51 -3.08,1.25 a 5.3,5.3 0 0 1 0.67,1.61 16.49,16.49 0 0 1 -0.47,7.47 54.2,54.2 0 0 1 -3.42,9.56 56.56,56.56 0 0 1 -5,8.83 18.19,18.19 0 0 1 -5.25,5.36 2.85,2.85 0 0 1 -0.08,-0.67 14.35,14.35 0 0 1 0,-1.61 c 0,-0.54 0.08,-1 0.11,-1.25 0.39,-2.6 0.89,-5.36 1.5,-8.28 0.61,-2.92 1.21,-5.55 1.78,-7.92 0.41,-1.49 0.67,-2.61 0.81,-3.33 a 1.93,1.93 0 0 0 -0.25,-1.61 5,5 0 0 0 -1.69,-1.22 c -0.53,-0.27 -1.19,-0.62 -2,-1.08 -1.65,-0.95 -1.76,-0.93 -2.22,0.75 -0.46,1.68 -1.31,3.68 -2.44,6.56 -1.13,2.88 -2.38,5.88 -3.76,8.94 a 79,79 0 0 1 -4,7.83 c -1.27,2.14 -2.3,3.24 -3.08,3.28 a 0.4,0.4 0 0 1 -0.33,-0.33 2.9,2.9 0 0 1 -0.08,-0.72 11.64,11.64 0 0 1 0.14,-1.61 10.75,10.75 0 0 1 0.25,-1.25 c 0.35,-1.74 0.83,-3.78 1.44,-6.14 0.61,-2.36 1.24,-4.72 1.89,-7 0.65,-2.28 1.19,-4.25 1.64,-5.83 a 25.49,25.49 0 0 0 1.14,-4.06 1.71,1.71 0 0 0 -1.11,-1.72 c -0.66,-0.35 -1.68,-1 -3.11,-1.81 a 2.41,2.41 0 0 0 -2.56,-0.19 c -2.66,1 -5.33,2.1 -8.06,3.39 a 67.36,67.36 0 0 0 -8.39,4.67 c -2.39,1.59 -3.91,3 -4.58,4.31 a 4.85,4.85 0 0 0 0.25,4.78 6.86,6.86 0 0 0 2,2.22 c 3.24,2.23 2.16,0.94 2.47,-1.64 a 6.58,6.58 0 0 1 0.92,-2.64 23.7,23.7 0 0 1 6,-6.22 39.72,39.72 0 0 1 9.7,-5.58 c -0.65,2.39 -1.34,5 -2.08,7.78 -0.74,2.78 -1.46,5.52 -2.08,8.11 -0.62,2.59 -1.09,4.78 -1.39,6.53 a 10.1,10.1 0 0 0 -0.22,2.39 4.49,4.49 0 0 0 0.88,2.23 6.38,6.38 0 0 0 1.92,1.75 4.35,4.35 0 0 0 2.33,0.69 c 1.68,-0.1 3.32,-1.23 4.89,-3.36 a 40.46,40.46 0 0 0 4.36,-7.81 q 2,-4.62 3.5,-9 c -0.49,2.37 -0.94,4.71 -1.33,7 -0.39,2.29 -0.67,4.33 -0.86,6.08 a 12,12 0 0 0 -0.08,2.39 4.47,4.47 0 0 0 1,2.28 6.64,6.64 0 0 0 2,1.72 5.63,5.63 0 0 0 2.45,0.72 q 2.48,0 6.78,-4.42 1.05,-1.07 2.08,-2.25 a 5.35,5.35 0 0 0 2.11,4.92 11.14,11.14 0 0 0 6.56,2.25 11,11 0 0 0 7.67,-2.69 15,15 0 0 0 3.06,-3.5 19.65,19.65 0 0 0 -0.17,5.14 c 0,0.25 0.56,0.48 1.75,0.64 a 22.17,22.17 0 0 0 3.53,0.17 c 1.14,0 1.72,-0.14 1.72,-0.33 -0.1,-0.69 -0.21,-2.2 -0.3,-3.83 2.38,2.53 5.24,4.38 7.42,4.22 1.27,-0.09 2.8,-1.09 4.53,-3.06 a 19,19 0 0 0 1.08,-1.56 4.56,4.56 0 0 0 1.14,2.42 5.15,5.15 0 0 0 4.389998,1.89 c 1.74,-0.18 3.1,-1.57 4.14,-4.19 a 16.89,16.89 0 0 1 1.11,-2.42 c 0.67,-1.09 0.52,-0.37 0.42,0.14 -0.33,1.67 -0.72,4 0.33,5.47 a 2.65,2.65 0 0 0 2.5,1.33 c 1,-0.14 2.16,-1 3.42,-2.61 a 5.18,5.18 0 0 0 0.05,1.47 c 0.1,0.25 0.62,0.47 1.61,0.61 a 16.17,16.17 0 0 0 2.86,0.17 c 0.91,0 1.36,-0.14 1.36,-0.33 0.8,-3.5 1.42,-6.5 4.28,-10.25 0.1,0 0.14,0 0.17,0 a 0.84,0.84 0 0 1 0,0.42 c 0,0.21 -0.09,0.44 -0.14,0.69 -0.05,0.25 -0.15,0.61 -0.28,1.08 -0.13,0.47 -0.23,0.92 -0.33,1.33 a 9.4,9.4 0 0 0 -0.31,3.61 6.49,6.49 0 0 0 0.72,2.28 2.83,2.83 0 0 0 1.33,1.19 4.85,4.85 0 0 0 1.56,0.42 5.93,5.93 0 0 0 1.47,-0.11 c 1.17,-0.25 2.4,-1.29 3.69,-3.14 a 23.33,23.33 0 0 0 3.12,-6.47 v -0.08 c 0.05,-0.15 -0.05,-0.22 -0.31,-0.19 z m -28.64,1.75 q -1.82,6 -2.81,6 c -0.46,-0.06 -0.63,-0.57 -0.53,-1.56 a 30.08,30.08 0 0 1 1.05,-4.64 c 0.41,-1.33 0.78,-2.43 1.08,-3.25 0.3,-0.82 0.58,-1.53 0.89,-2.17 a 4.66,4.66 0 0 1 0.89,-1.33 1.1,1.1 0 0 1 0.69,-0.28 0.45,0.45 0 0 1 0.5,0.5 22.56,22.56 0 0 1 -1.19,5 c -0.3,0.83 -0.42,1.25 -0.57,1.73 z" />
  <rect
     id="rect138"
     style="fill:#ffffff"
     ry="0.88"
     rx="0.88"
     height="6.2600002"
     width="6.2600002"
     y="26.830006"
     x="116.36" />
  <rect
     id="rect140"
     style="fill:#ffffff"
     ry="1.08"
     rx="1.08"
     height="7.6700001"
     width="7.6700001"
     y="29.170002"
     x="126.02" />
  <rect
     id="rect142"
     style="fill:#ffffff"
     ry="1.28"
     rx="1.28"
     height="9.0799999"
     width="9.0799999"
     y="19.620007"
     x="134.94" />
</svg>
